<svg version="1" xmlns="http://www.w3.org/2000/svg" width="625.333" height="625.333" viewBox="0 0 469.000000 469.000000"><path d="M169.5 182.7c-4.5 4.6-4.7 9.1-.6 17.2 3.1 6.4 5 13.3 7.5 28.6 1 5.5 2.1 12 2.6 14.5s1.2 7 1.6 10c1.3 11.7 4.3 18 8.5 18 1 0 2.1.4 2.4 1 1.7 2.7 9.1-.1 17.1-6.5 3.8-3 13-12.2 24-23.6 3.3-3.5 6.8-7 7.7-7.7 1.7-1.4 1.7-1.3 6.7 10.3 2.6 6.2 5.7 12.1 8.3 15.8 2.4 3.6 8.9 7.7 12 7.7 4.9 0 7-2.7 13.7-18.5.9-2.2 5.7-16.8 8.5-26 1-3.3 2.3-7.8 3-10 .7-2.2 2.1-6.7 3-10 1-3.3 2.4-7.7 3.1-9.8 3-8.3.4-12.7-7.5-12.7-7.6 0-11 4.5-12.6 16.7-1.2 9.1-6.2 28.3-7.5 28.3-1.4-.1-2.9-1.9-5.1-6.5-1.3-2.8-4.6-7.1-7.2-9.8-4.4-4.3-5.2-4.7-9.7-4.7-4 0-10 2-12 4-.3.3-2.7 2.3-5.5 4.5-5.8 4.6-10 8.8-20.8 20.5-7.3 7.9-7.9 8.4-9 6.5-1-1.8-3.7-11.4-8.2-29.5-.7-3-2.1-8.2-3-11.5-.9-3.3-2-7.5-2.5-9.3-1.1-4.3-3.5-6.9-8.4-9.3-5.4-2.6-6-2.5-10.1 1.8zM103.5 180.9c-2.2.4-4.9 1.2-6 1.8-1.1.6-5.1 2.5-9 4.4-3.8 1.8-8.8 4.4-11 5.8-2.2 1.4-5.6 3.4-7.5 4.4-13.5 7.5-34.9 27.8-39.8 37.9-8.3 16.8-.8 32.3 17.3 36.1 9.4 2 34 .6 39.2-2.2 1.2-.6 3.4-1.1 5-1.1 1.5 0 4.1-.7 5.7-1.5 1.5-.8 3.8-1.5 5-1.5 1.2 0 3.1-.7 4.2-1.5 1-.8 3.1-1.5 4.5-1.5s3.4-.7 4.5-1.5c1-.8 2.8-1.5 4-1.5 1.1 0 2.9-.7 4-1.5 1-.8 2.9-1.5 4-1.5 1.2 0 2.7-.7 3.4-1.5.7-.8 2-1.5 3-1.5 1.7 0 10.3-4.2 12.8-6.2 2-1.7 1.4-3.7-2-6.9-4.8-4.3-5.8-4.1-21.8 3.3-3.6 1.6-7.2 3.4-8 3.9-.8.5-2.2 1.2-3 1.5-.8.3-2.2 1-3 1.5-.8.5-2.2 1.2-3 1.5-.8.3-2.8 1.2-4.3 2-1.6.7-3.7 1.4-4.7 1.4-.9 0-3.4.7-5.3 1.5-2 .8-5.2 1.5-7.1 1.5-1.9 0-6.1.7-9.3 1.5-7.4 1.9-11.8 1.9-18.4-.1-10-3.1-12.2-8.7-7.4-18.8C52.2 234.9 66 221 68.9 221c.5 0 1.6-.6 2.3-1.3 1.8-1.6 4.3-3.1 10.3-6.2 2.8-1.4 5.7-2.9 6.5-3.4.8-.5 3.5-1.8 6-2.9 21.8-9.8 23-10.8 23-18.6 0-8-2.6-9.5-13.5-7.7zM374 186.1c-1.9 1.2-4 2.9-4.8 3.8-1.6 2.1-6.2 12-9.7 21.1-.9 2.5-2.3 5.8-3 7.5-.7 1.6-1.8 4.4-2.5 6.1-1 2.8-1.7 3.2-5.7 3.7-5.2.6-9.7 3.4-10.1 6.6-.2 1.2.8 4.2 2.2 6.7 1.4 2.6 2.6 5.6 2.6 6.7 0 1.1-2.6 7.2-5.7 13.6-5.8 11.7-7.5 19.2-5.9 25.4 1.4 5.8 7.6 9.2 13.1 7.1 2.7-1.1 5.4-7.9 10-25.4 5.1-19.1 6.9-23.2 11.6-25.9 2-1.2 4.6-2.1 5.7-2.1 1.2 0 2.3-.4 2.7-.9.3-.6 2.7-1.3 5.3-1.6 2.6-.4 5.6-1 6.7-1.5 2.4-1.1 10.1-2.7 21.5-4.5 17.1-2.7 20.3-3.5 22.6-5.6 4.9-4.6 3.6-9.1-3-10.8-4.7-1.2-21.2-.2-31.6 1.9-6.8 1.4-19.7 2.3-21 1.5-1.4-.9 4.2-11.1 7.9-14.2 2.4-2 3.7-2.2 15.3-2.3h12.7l3.6-3.1c4.6-4.1 4.8-8.7.6-13l-2.9-2.9h-17.4c-15.9 0-17.6.2-20.8 2.1zM150.7 222.5c-1.5 1.5-2.7 3.6-2.7 5 0 2.1 4.4 7.5 6.1 7.5.3 0 1.8-.9 3.3-2.1 1.9-1.5 2.6-3 2.6-5.4 0-2.4-.7-3.9-2.6-5.4-3.3-2.6-3.4-2.6-6.7.4zM308.3 223.2c-3.3 3.8-3.4 4.5-.7 7.7 2.9 3.5 4.5 3.8 7.4 1.4 3.8-3.3 1.4-11.3-3.3-11.3-.8 0-2.3 1-3.4 2.2z"/></svg>